<svg xmlns="http://www.w3.org/2000/svg" viewBox="0 0 450.08 60.76"><title>Alibaba.com logo</title><path d="M606.26,523.72v-2.86h-5.11c-3.55,0-4.93.59-4.93,3,0,1.88,1.23,2.57,3.76,2.57,3.15,0,5.42-1.12,6.28-2.64Zm8.87-11.08v19.94h-8l-.75-3.07c-1.12,1.84-4,3.61-8.92,3.61-6.29,0-9.85-2.84-9.85-8.93,0-6.71,4-9.14,12-9.14h6.68v-.17c0-3.44-1-4.36-5.86-4.36a53.84,53.84,0,0,0-7.28.49v-7.46a76.12,76.12,0,0,1,8.4-.48c9.84,0,13.5,3.19,13.5,9.57Zm-180,2.16-4.35-14.15h-.65l-4.46,14.15Zm2.59,8.33H423.11l-3,9.4h-9.73l13.82-40.73h12.64l13.71,40.73h-9.94Zm136.72-5c0-5.06-.75-8.56-5.48-8.56s-5.86,3.07-5.86,8.62c0,5.21,1.12,8.44,5.86,8.44s5.48-3.77,5.48-8.5Zm9.09,0c0,8.44-2.16,15-11.45,15-5.48,0-7.64-1.66-8.71-4.25l-.54,3.69h-8.18V491.71h8.93v14.78c1.23-1.72,3.55-3.45,8.5-3.45,9.3,0,11.45,5.68,11.45,15Zm-45.21,5.65v-2.86h-5.06c-3.55,0-4.93.59-4.93,3,0,1.87,1.23,2.57,3.77,2.57,3.1,0,5.36-1.12,6.22-2.64Zm8.87-11.08v19.94h-8l-.75-3.07c-1.13,1.84-4,3.61-8.93,3.61-6.29,0-9.85-2.84-9.85-8.93,0-6.71,4-9.14,12-9.14h6.66v-.17c0-3.44-1-4.36-5.86-4.36a51.66,51.66,0,0,0-7.27.49v-7.46a76,76,0,0,1,8.4-.48c9.91,0,13.56,3.19,13.56,9.57Zm-40.75,5.43c0-5-.75-8.55-5.48-8.55s-5.87,3.07-5.87,8.55c0,5.22,1.13,8.45,5.86,8.45S506.45,522.81,506.45,518.07Zm9.09,0c0,8.45-2.16,15.06-11.45,15.06-5.48,0-7.64-1.67-8.71-4.25l-.54,3.69h-8.17V491.72h8.92V506.5c1.23-1.71,3.55-3.44,8.5-3.44,9.3,0,11.45,5.65,11.45,15Zm-44.83-14.5h8.93v29h-8.93Zm-.43-8.18c0-4.2.86-4.52,4.93-4.52s4.93.32,4.93,4.52-.81,4.62-4.93,4.62S470.28,499.53,470.28,495.39Zm-15.48-3.68h9v40.86h-9Zm279.91,13.87a10,10,0,0,1,2.32,7V532.6H732.4V514.21a9,9,0,0,0-1.23-5.3,4.93,4.93,0,0,0-4.36-1.75,9.3,9.3,0,0,0-4.75,1.1,6.51,6.51,0,0,0-2.81,4V532.6h-4.62V514.21a9.66,9.66,0,0,0-1.16-5.33,4.68,4.68,0,0,0-4.08-1.71,9.28,9.28,0,0,0-4.83,1.07,7.19,7.19,0,0,0-2.92,4.18V532.6h-4.57v-29h4.62v3.82a7.07,7.07,0,0,1,3.36-3.39,12,12,0,0,1,5-1c4.3,0,7.12,1.59,8.45,4.74,1.43-3.15,4.45-4.74,9-4.74,3.21,0,5.62.86,7.16,2.56Zm-53.07,22.16a5.52,5.52,0,0,0,2.54-3.33,22.71,22.71,0,0,0,.74-6.6,22,22,0,0,0-.79-6.6,5.69,5.69,0,0,0-2.6-3.37,10,10,0,0,0-4.93-1,10.07,10.07,0,0,0-5,1,5.63,5.63,0,0,0-2.54,3.35,22.45,22.45,0,0,0-.76,6.63,21.26,21.26,0,0,0,.79,6.58,5.74,5.74,0,0,0,2.59,3.35,10,10,0,0,0,4.93,1,10.23,10.23,0,0,0,5.11-1Zm-12.32,3.49a9,9,0,0,1-4.41-4.62,26.28,26.28,0,0,1,0-17.59,9,9,0,0,1,4.41-4.62,16.84,16.84,0,0,1,7.28-1.38,16.63,16.63,0,0,1,7.29,1.38,9.14,9.14,0,0,1,4.36,4.62,26.48,26.48,0,0,1,0,17.59,9.14,9.14,0,0,1-4.36,4.62,16.46,16.46,0,0,1-7.29,1.38A16.66,16.66,0,0,1,669.33,531.22Zm-26.24,0a9.1,9.1,0,0,1-4.42-4.62,26.48,26.48,0,0,1,0-17.59,9.1,9.1,0,0,1,4.42-4.62,16.84,16.84,0,0,1,7.28-1.38,23.53,23.53,0,0,1,7.45,1.06v4.18a20.62,20.62,0,0,0-7.39-1.23,10.61,10.61,0,0,0-5,1,5.63,5.63,0,0,0-2.59,3.34,21.24,21.24,0,0,0-.79,6.56,20.81,20.81,0,0,0,.79,6.5,5.53,5.53,0,0,0,2.59,3.28,10.93,10.93,0,0,0,5.07.95,19.53,19.53,0,0,0,7.39-1.23v4.18a19.11,19.11,0,0,1-3.39.74,29,29,0,0,1-4.18.32,16.66,16.66,0,0,1-7.22-1.4Zm-17.67,1.12a1.68,1.68,0,0,1-1.11-1A6.1,6.1,0,0,1,624,529a3.79,3.79,0,0,1,.76-2.84,6.53,6.53,0,0,1,5.69,0,3.79,3.79,0,0,1,.76,2.84,3.89,3.89,0,0,1-.76,2.93,4.24,4.24,0,0,1-2.84.68A7,7,0,0,1,625.41,532.34Zm-265.59,1c-4.93.22-4.38-2.32-1.53-6.24,6.68-9,19.34-21.44,19.71-30.28.84-11.5-10.78-15.31-22.72-15.2a73.34,73.34,0,0,0-22.75,4.59c-20.26,7.13-33,18.57-41,31.23-8.5,12.55-5.7,24.52,12.22,24.93,13.74-.55,22.67-4.36,32-9.13,0,0-25.75,7.39-35.24,1.95a4.16,4.16,0,0,1-2.32-3.46c0-4.48,7.39-9.13,11.56-10.62v-7.76a27.37,27.37,0,0,0,27.48-4.56,6.55,6.55,0,0,1,.16,2.25h1.87a5.42,5.42,0,0,0-.87-3.57,5.7,5.7,0,0,0-4.63-2.64,6.63,6.63,0,0,1,2.68,2.36,25.11,25.11,0,0,1-23.62,4.72l6.16-6.08-1.7-4.42a221.9,221.9,0,0,1,39.52-10.55l-3.78-3.09,2-1.23c10.17,2.82,16.88,4.93,16.47,10.33a13.39,13.39,0,0,1-1,3.09c-3,5.86-11.77,15.64-15.33,19.71a75.79,75.79,0,0,0-6.31,7.91,13.74,13.74,0,0,0-2.78,7.22c.21,17.75,52.32-8.29,62.39-15.2C393.57,526,377.52,532.21,359.82,533.35Z" transform="translate(-286.96 -481.62)" style="fill:#f60"/></svg>