<?xml version="1.0" encoding="utf-8"?>
<!-- Generator: Adobe Illustrator 22.1.0, SVG Export Plug-In . SVG Version: 6.00 Build 0)  -->
<svg version="1.1" id="icon" xmlns="http://www.w3.org/2000/svg" xmlns:xlink="http://www.w3.org/1999/xlink" x="0px" y="0px"
	 viewBox="0 0 800 800" style="enable-background:new 0 0 800 800;" xml:space="preserve">
<style type="text/css">
	.st0{fill:none;}
	.st1{fill:#333333;}
	.st2{fill:#FFFFFF;}
</style>
<title>logo--facebook</title>
<rect id="_Transparent_Rectangle_" x="-222.9" y="-75" class="st0" width="800" height="800"/>
<path class="st1" d="M655.7,681.3H132.4c-19.5,0-35.3-15.8-35.3-35.3V116.6c0-19.5,15.8-35.3,35.3-35.3h523.3
	c19.5,0,35.3,15.8,35.3,35.3v529.3C691.1,665.4,675.3,681.3,655.7,681.3z"/>
<path class="st2" d="M663.8,81.3H130.3c-18.3,0.1-33.1,14.9-33.2,33.3V648c0.1,18.3,14.9,33.1,33.2,33.3h287.3v-232h-78v-90.7h78
	v-66.8c0-77.5,47.2-119.8,116.8-119.8c23.3,0,46.5,0,69.8,3.5v80.8h-47.8c-37.8,0-45,18-45,44.3v57.8h90L589.6,449h-78.3v232.3
	h152.5c18.3-0.1,33.1-14.9,33.3-33.3V114.5C696.9,96.2,682.1,81.4,663.8,81.3z"/>
</svg>
