<?xml version="1.0" encoding="utf-8"?>
<!-- Generator: Adobe Illustrator 22.1.0, SVG Export Plug-In . SVG Version: 6.00 Build 0)  -->
<svg version="1.1" id="Слой_1" xmlns="http://www.w3.org/2000/svg" xmlns:xlink="http://www.w3.org/1999/xlink" x="0px" y="0px"
	 viewBox="0 0 50 50" style="enable-background:new 0 0 50 50;" xml:space="preserve">
<style type="text/css">
	.st0{fill:#FCFCFC;}
	.st1{fill:#333333;}
</style>
<g>
	<path class="st0" d="M24.4,7.3c-6.6,0-12.8,0.5-16.1,1.2c-2.2,0.5-4.1,2-4.5,4.3C3.4,15.2,3,18.8,3,23.3s0.4,8,0.9,10.5
		c0.4,2.2,2.3,3.8,4.5,4.3c3.5,0.7,9.5,1.2,16.1,1.2s12.6-0.5,16.1-1.2c2.2-0.5,4.1-2,4.5-4.3c0.4-2.5,0.9-6.1,1-10.6
		c0-4.5-0.5-8.1-1-10.6c-0.4-2.2-2.3-3.8-4.5-4.3C37.1,7.8,31,7.3,24.4,7.3z"/>
	<path class="st0" d="M24.4,9.3c7.2,0,13,0.6,15.8,1.1c1.5,0.4,2.7,1.4,2.9,2.7c0.6,3.2,1,6.6,1,10.1c-0.1,4.3-0.6,7.8-1,10.3
		c-0.3,1.9-2.3,2.5-2.9,2.7c-3.6,0.7-9.6,1.2-15.6,1.2S12.5,37,9,36.2c-1.5-0.4-2.7-1.4-2.9-2.7C5.3,30.7,5,27,5,23.3
		c0-4.6,0.4-8,0.8-10.1c0.3-1.9,2.4-2.5,2.9-2.7C12,9.8,18.1,9.3,24.4,9.3z"/>
</g>
<g id="Слой_2">
	<polygon class="st1" points="21,17.9 29,22.5 21,27 	"/>
</g>
</svg>
