<?xml version="1.0" encoding="utf-8"?>
<!-- Generator: Adobe Illustrator 22.1.0, SVG Export Plug-In . SVG Version: 6.00 Build 0)  -->
<svg version="1.1" id="Слой_1" xmlns="http://www.w3.org/2000/svg" xmlns:xlink="http://www.w3.org/1999/xlink" x="0px" y="0px"
	 viewBox="0 0 50 50" style="enable-background:new 0 0 50 50;" xml:space="preserve">
<style type="text/css">
	.st0{fill:#FFFFFF;}
</style>
<path class="st0" d="M26,10c-0.6,0-1,0.4-1,1c0,0,0,4.9,0,9.8c0,2.4,0,4.9,0,6.7c0,1.8,0,3,0,3.1c0,1.8-1.6,3.3-3.5,3.3
	c-1.9,0-3.4-1.5-3.4-3.4s1.5-3.4,3.4-3.4c0.1,0,0.2,0,0.4,0c0.5,0.1,1-0.3,1.1-0.9c0,0,0-0.1,0-0.1V22c0-0.5-0.4-1-0.9-1
	c-0.2,0-0.4,0-0.6,0c-5.2,0-9.5,4.3-9.5,9.5c0,5.2,4.3,9.5,9.5,9.5c5.2,0,9.5-4.3,9.5-9.5v-9c1.5,1.2,3.3,1.9,5.3,1.9
	c0.3,0,0.5,0,0.8,0c0.5,0,0.9-0.5,0.9-1v-4.7c0-0.5-0.4-1-0.9-1c-3.1-0.2-5.7-2.7-6-5.8c-0.1-0.5-0.5-0.9-1-0.9H26z"/>
<path class="st0" d="M27,12h2.3c0.7,3.3,3.3,5.8,6.6,6.4v2.9c-2.1-0.1-4-1.2-5.1-2.9c-0.3-0.5-0.9-0.6-1.4-0.3
	C29.2,18.4,29,18.7,29,19v11.5c0,4.2-3.4,7.5-7.5,7.5c-4.2,0-7.5-3.4-7.5-7.5c0-4,3.1-7.2,7.1-7.4v2.2c-2.7,0.3-4.9,2.5-4.9,5.3
	c0,2.9,2.4,5.4,5.4,5.4c2.9,0,5.5-2.3,5.5-5.3c0,0,0-1.3,0-3.1c0-1.8,0-4.3,0-6.7C27,16.4,27,12.8,27,12z"/>
</svg>
