<?xml version="1.0" encoding="utf-8"?>
<!-- Generator: Adobe Illustrator 22.1.0, SVG Export Plug-In . SVG Version: 6.00 Build 0)  -->
<svg version="1.1" id="Слой_1" xmlns="http://www.w3.org/2000/svg" xmlns:xlink="http://www.w3.org/1999/xlink" x="0px" y="0px"
	 viewBox="0 0 50 50" style="enable-background:new 0 0 50 50;" xml:space="preserve">
<style type="text/css">
	.st0{fill:#1EFF00;}
	.st1{fill:#FFFFFF;}
</style>
<path class="st0" d="M25,50L25,50C11.2,50,0,38.8,0,25v0C0,11.2,11.2,0,25,0h0c13.8,0,25,11.2,25,25v0C50,38.8,38.8,50,25,50z"/>
<polygon class="st1" points="9.2,8.7 19.3,8.7 26.5,19.6 35.3,8.7 38.5,8.7 28,21.8 40.9,41.3 30.8,41.3 22.4,28.7 12.3,41.3 
	9.1,41.3 21,26.5 "/>
<polygon class="st0" points="14.1,11.4 32.1,38.6 36,38.6 18,11.4 "/>
</svg>
