<?xml version="1.0" encoding="utf-8"?>
<!-- Generator: Adobe Illustrator 22.1.0, SVG Export Plug-In . SVG Version: 6.00 Build 0)  -->
<svg version="1.1" id="Слой_1" xmlns="http://www.w3.org/2000/svg" xmlns:xlink="http://www.w3.org/1999/xlink" x="0px" y="0px"
	 viewBox="0 0 800 800" style="enable-background:new 0 0 800 800;" xml:space="preserve">
<style type="text/css">
	.st0{fill:#1EFF00;}
	.st1{fill:#FFFFFF;}
</style>
<circle class="st0" cx="400" cy="400" r="384"/>
<path class="st1" d="M547.7,449.2c0,0,34,33.5,42.3,49.1c0.2,0.3,0.4,0.6,0.4,0.8c3.4,5.7,4.2,10.2,2.5,13.5
	c-2.8,5.5-12.4,8.2-15.7,8.5h-60c-4.2,0-12.9-1.1-23.4-8.4c-8.1-5.7-16.1-15-23.9-24.1c-11.6-13.5-21.7-25.2-31.9-25.2
	c-1.3,0-2.6,0.2-3.8,0.6c-7.7,2.5-17.5,13.4-17.5,42.6c0,9.1-7.2,14.4-12.3,14.4H377c-9.4,0-58.1-3.3-101.3-48.8
	c-52.9-55.8-100.5-167.7-100.9-168.8c-3-7.2,3.2-11.1,10-11.1h60.6c8.1,0,10.7,4.9,12.6,9.3c2.2,5.1,10.1,25.3,23.1,48
	c21.1,37,34,52.1,44.4,52.1c1.9,0,3.9-0.5,5.6-1.4c13.5-7.5,11-55.7,10.4-65.7c0-1.9,0-21.6-7-31c-5-6.8-13.4-9.4-18.5-10.4
	c2.1-2.9,4.8-5.2,8-6.8c9.3-4.6,26-5.3,42.6-5.3h9.2c18,0.2,22.6,1.4,29.2,3c13.2,3.2,13.5,11.7,12.3,40.8
	c-0.4,8.3-0.7,17.6-0.7,28.7c0,2.4-0.1,5-0.1,7.7c-0.4,14.8-0.9,31.7,9.6,38.6c1.4,0.9,2.9,1.3,4.6,1.3c3.6,0,14.6,0,44.3-50.9
	c9.2-16.4,17.1-33.4,23.8-51c0.6-1,2.4-4.2,4.4-5.5c1.5-0.8,3.2-1.2,5-1.2h71.2c7.8,0,13.1,1.2,14.1,4.2c1.8,4.8-0.3,19.3-32.8,63.3
	l-14.5,19.2C516.4,418,516.4,419.9,547.7,449.2L547.7,449.2z"/>
</svg>
